<svg id="Global" xmlns="http://www.w3.org/2000/svg" xmlns:xlink="http://www.w3.org/1999/xlink" viewBox="0 0 1085.86 302.96"><defs><style>.cls-1{fill:none;}.cls-2{fill:#59c4f0;}.cls-3{fill:#fff;}.cls-4{clip-path:url(#clip-path);}.cls-5{isolation:isolate;}.cls-6{clip-path:url(#clip-path-2);}.cls-7{fill:#58c4f1;}.cls-8{fill:#98e5d6;}.cls-9{fill:#5ac4f0;}</style><clipPath id="clip-path"><rect class="cls-1" width="1085.86" height="302.96"/></clipPath><clipPath id="clip-path-2"><rect class="cls-1" x="15" y="215.97" width="470.94" height="11"/></clipPath></defs><title>VoxxedDays-Logo-White-2colors</title><g id="_2_colours_white" data-name="2 colours white"><path class="cls-2" d="M312.24,78.82c-1.9,2.49-3.53,4.76-5.3,6.93-2.9,3.56-5.88,7-9.18,11C284,79.19,270.38,61.91,256.18,43.83c9.91,0,18.82,0,27.72.07a4.22,4.22,0,0,1,2.91,1.45c8.48,11,16.88,22.18,25.43,33.47"/><path class="cls-2" d="M459.58,43.82c-5.34,6.81-10,12.79-14.71,18.76Q410.13,106.74,375.46,151c-2.39,3.05-4.88,4.47-8.81,4.25a164.39,164.39,0,0,0-17.48,0,9.11,9.11,0,0,1-8.76-4.24c-6.7-9.32-13.68-18.45-20.77-27.48-1.91-2.43-1.95-4.2-.05-6.47,3.92-4.67,7.72-9.46,12-14.74l26.12,33c1.39-1.59,2.48-2.75,3.47-4q32.9-41.79,65.72-83.64c2.15-2.75,4.31-4,7.88-3.88,7.81.28,15.64.09,24.78.09"/><g id="Luxembourg"><path class="cls-3" d="M517.78,189.62V236.8H544v9H507.37V189.62Z"/><path class="cls-3" d="M553.83,223.75V189.62h10.41v34.13q0,13.44,13.75,13.44t13.75-13.44V189.62h10.4v34.13q0,22.49-24.15,22.49T553.83,223.75Z"/><path class="cls-3" d="M609,189.62h13.15l44.19,56.22H653.2Zm13.15,56.22H609l44.18-56.22h13.16Z"/><path class="cls-3" d="M709.8,189.62v9H683.25v14.15h25.22v9.32H683.13V236.8h27.22v9H672.92V189.62Z"/><path class="cls-3" d="M721.55,245.84V189.62h10.8l19,42.66,18.65-42.66h10.41v56.22h-9.62V206.69L755.6,245.84h-8.88l-15.55-39.15v39.15Z"/><path class="cls-3" d="M792.25,245.84V189.62h26.31q16,0,16,13.1,0,9.59-10.45,13.72,11.15,2.09,11.15,12.77,0,16.64-17.55,16.63Zm25-9q6.91,0,6.92-7.08,0-8.76-10.33-8.76h-3.15v-6.73q13-2.16,13-10.85,0-4.71-5.82-4.71H802.65V236.8Z"/><path class="cls-3" d="M841.73,217.81q0-28.58,28.2-28.58,27.78,0,27.77,28.58,0,28.42-27.77,28.43Q843,246.24,841.73,217.81Zm28.2,19.38q17,0,17-19.61,0-19.31-17-19.31-17.4,0-17.4,19.31Q852.53,237.19,869.93,237.19Z"/><path class="cls-3" d="M907.52,223.75V189.62h10.41v34.13q0,13.44,13.75,13.44t13.74-13.44V189.62h10.41v34.13q0,22.49-24.15,22.49T907.52,223.75Z"/><path class="cls-3" d="M967.62,245.76V189.62h25.53q17.21,0,17.2,15.06,0,10.19-13.39,16.87l17.79,24.29h-13.51l-17.09-24.49v-4.76Q999.47,214,999.47,205q0-6.21-7-6.21H978.22v47Z"/><path class="cls-3" d="M1066.4,243.25q-6.8,3-17,3-29.73,0-29.73-29.29,0-27.72,30.24-27.72a46.49,46.49,0,0,1,16.5,2.75v9.44a39.09,39.09,0,0,0-15.71-3.15q-20.24,0-20.23,18.68,0,20.25,19.09,20.24a25.79,25.79,0,0,0,6.44-.94V219.9h10.41Z"/></g><g id="Line"><g class="cls-4"><g class="cls-5"><g class="cls-6"><rect class="cls-7" x="15" y="215.97" width="470.94" height="11"/></g></g></g></g><g id="Days"><g class="cls-4"><path class="cls-2" d="M682.9,98.77c0-17.16,0-34.31,0-51.47,0-2.89.24-4.63,3.93-4.5,17.13.57,34.27-.61,51.41.87,25.43,2.19,41.09,17.53,43.89,42.85a88.85,88.85,0,0,1-1.75,30.7c-5.49,22.86-21.43,36.24-45.22,37.28-16.29.71-32.64.13-49,.3-3.31,0-3.29-1.71-3.28-4.07q.06-26,0-52m39.22-34.46a1,1,0,0,0,0,.17c-3.83,0-7.66.13-11.48,0-2.76-.13-3.79.77-3.78,3.66Q707,99,706.85,130c0,2.82.88,3.78,3.71,3.7,6.15-.16,12.31.13,18.46-.09,14.21-.49,23.49-7.27,27.3-19.86A57.85,57.85,0,0,0,758.71,94c-.87-17.12-8-26.23-22.68-28.89-4.54-.82-9.27-.58-13.91-.83"/><path class="cls-8" d="M1036.86,41.76a1.44,1.44,0,0,0,0,.94l-16.93,0a1.21,1.21,0,0,0,0-1Z"/><path class="cls-9" d="M1019.91,42.73l16.93,0c8.4.07,16.44,2.18,24.51,4.16,2.74.67,3.72,2.07,3.58,4.92-.24,4.82-.2,9.66,0,14.48.12,3.32-.85,4-4,2.89a94.17,94.17,0,0,0-36.76-5.38,34.07,34.07,0,0,0-14.43,3.46c-3.45,1.81-5.64,4.53-5.92,8.61-.52,7.78,2.71,11.52,10.63,11.75,7.32.2,14.64.12,22,.15a40.69,40.69,0,0,1,11.28,1.83c13.19,3.86,20.55,13.28,21.11,27,.9,21.94-10.21,35.1-32.15,38.1-16.2,2.22-32.14.77-48-3.07-4.32-1-6-3.11-5.58-7.6a108.07,108.07,0,0,0,.07-13c-.07-2.76.66-3.52,3.49-2.46,12.34,4.59,25.19,5.88,38.27,5.5,4.36-.13,8.64-.58,12.61-2.52a12.86,12.86,0,0,0,7.16-14c-1-5-4.58-7.36-11.3-7.75-9.63-.56-19.28.61-28.9-.91-14.86-2.35-23.74-12.45-24.71-27.44-1.55-23.89,12-34.21,31.29-37.6,2.93-.52,5.93-.71,8.89-1.05"/><path class="cls-9" d="M902.06,154.73c-8.46,0-16.22,0-24,0-2.25,0-2.59-1.71-3.22-3.2-3-7.05-6.21-14-8.78-21.19-1.39-3.88-3.45-4.93-7.35-4.81-9.15.28-18.33-.11-27.48.17-4.45.13-4.68-1.24-3-4.8,2-4.36,3.74-8.89,5.35-13.43.92-2.58,2.32-3.68,5.14-3.53,4,.22,8,0,12,.08,3,.07,3.9-.86,2.62-3.84-4-9.31-7.81-18.69-12.15-29.12-3.59,8.68-6.84,16.42-10,24.2-7.52,18.48-15.08,36.94-22.43,55.49-1.27,3.2-3,4.24-6.31,4-4.82-.28-9.66-.07-14.49-.08-5.84,0-5.89,0-3.68-5.26q11.87-28,23.79-56c6.64-15.61,13.35-31.18,19.84-46.85,1.22-2.94,2.76-4,5.91-3.82a104.29,104.29,0,0,0,14.47,0c3.94-.31,5.9,1,7.45,4.69,9.95,23.42,20.11,46.74,30.22,70.09,5.27,12.17,10.55,24.34,16.12,37.18"/><path class="cls-9" d="M931.52,92.85c8.69-15.8,17-30.74,25.12-45.83,1.63-3,3.34-4.4,6.89-4.24,6.59.3,13.2.09,20.76.09-4.2,7.56-7.91,14.36-11.73,21.1-8.86,15.64-17.71,31.28-26.7,46.84a20.78,20.78,0,0,0-2.93,11.34c.21,9.49-.07,19,.14,28.48.07,3.33-1.05,4.31-4.27,4.18-5.32-.23-10.67-.23-16,0-3.19.14-3.92-1.12-3.88-4.06.14-10-.06-20,.12-30a17.93,17.93,0,0,0-2.66-9.89Q897.61,79.37,879,47.72c-.79-1.33-2.67-2.81-1.46-4.33.63-.8,2.77-.49,4.24-.51,5.33,0,10.67.23,16-.1,3.54-.22,5.38,1.19,7.05,4.11,8.67,15.17,17.52,30.22,26.68,46"/></g></g><g id="Voxxed"><g class="cls-4"><path class="cls-3" d="M560.73,155.05c-.16-2.59-.33-4.21-.34-5.84,0-33.46.06-66.92-.1-100.38,0-4.27,1-5.84,5.54-5.71,15.46.45,30.95.12,46.4.76,29.29,1.23,46.22,18.39,47.39,47.74.53,13.25-.76,26.29-6.87,38.36-6.94,13.74-18.72,21.75-33.47,23.1-19.29,1.77-38.78,1.4-58.55,2m37-21.18c3.16,0,6.32.08,9.48,0,13.81-.4,23.73-7.49,26.81-21a80.63,80.63,0,0,0,1.66-24.64c-1.16-13.07-8.52-21.1-21.09-23.1C605.44,63.71,596,64.08,586.72,64c-1,0-2.8,2.53-2.81,3.91-.18,20.63-.08,41.26-.17,61.89,0,3,.86,4.28,4,4.1,3.31-.19,6.65,0,10,0"/><path class="cls-3" d="M252.55,101.23c-1,5.8-1.64,13.63-3.64,21.1-4.56,17-16.25,27.1-33.16,31a81.7,81.7,0,0,1-34.67.41c-18.29-3.66-30.36-14.33-36-32.11a77.33,77.33,0,0,1-1-44.72c4.54-16.46,15.06-27.16,31.52-31.58a80.75,80.75,0,0,1,40-.61c19.93,4.73,32,17.88,35.08,38.1.83,5.41,1.11,10.9,1.83,18.41M165.12,98.6l.32.06c.11,2.32.18,4.65.33,7,1.09,17.19,10.2,26.89,27.15,28.92,16.31,2,28.89-5.26,33-19.34a57.42,57.42,0,0,0,.08-32.5c-2.86-9.89-9.27-16.69-19.64-18.27a61.15,61.15,0,0,0-18.27-.11c-11.84,1.79-18.65,9.54-21.22,21-1,4.34-1.18,8.86-1.74,13.29"/><path class="cls-3" d="M467.39,154.28V43.6c1.58-.13,3.17-.36,4.76-.37,22.32,0,44.65.08,67-.09,4.08,0,5.7,1.07,5.41,5.31-.32,4.93-.07,9.9-.07,15.49h-54c0,7.46,0,14.26,0,21.06,0,3.52,2.53,2.86,4.57,2.87q20.25,0,40.49,0h5.84v20.58c-1.67.1-3.42.3-5.18.31-13.49,0-27,.21-40.48-.09-4.75-.11-6.13,1.56-5.82,6a101.91,101.91,0,0,1,0,14c-.3,4.3,1.45,5.32,5.47,5.26,14.66-.2,29.32-.08,44-.08h5.75v20.4Z"/><path class="cls-3" d="M78.7,122.75C83.85,110,88.52,98.5,93.17,87c5.35-13.25,10.76-26.48,16-39.78,1.13-2.86,2.6-4.15,5.83-4.05,7.42.22,14.85.07,23.07.07-4.31,9.84-8.22,18.78-12.14,27.71-11.61,26.48-23.29,52.93-34.78,79.46-1.31,3-2.73,4.43-6.19,4.2-6.45-.42-14.34,1.82-19-1.16-4.41-2.85-5.48-10.93-7.92-16.75C45.11,105.89,32.2,75.09,18.83,43.22c6.63,0,12.69-.06,18.74,0,10.59.13,8-1.48,12,8.14,9,22,17.84,44,26.76,66.07.55,1.37,1.22,2.69,2.41,5.31"/><path class="cls-3" d="M256.18,154.51c5.33-6.8,10-12.79,14.71-18.76q34.73-44.16,69.4-88.37c2.39-3.05,4.88-4.47,8.82-4.25a164.2,164.2,0,0,0,17.47,0,9.11,9.11,0,0,1,8.76,4.24C382,56.71,389,65.83,396.12,74.87c1.9,2.42,1.94,4.19,0,6.46-3.92,4.68-7.72,9.46-12,14.75L358,63.08c-1.38,1.59-2.48,2.75-3.46,4q-32.91,41.79-65.73,83.64c-2.15,2.75-4.31,4-7.88,3.88-7.81-.28-15.64-.09-24.77-.09"/><path class="cls-3" d="M403.51,119.51c1.9-2.49,3.54-4.76,5.3-6.93,2.9-3.56,5.88-7,9.18-11l41.59,52.91c-9.92,0-18.83.05-27.73-.06A4.26,4.26,0,0,1,429,153c-8.49-11.06-16.88-22.18-25.44-33.48"/></g></g></g></svg>